<svg xmlns="http://www.w3.org/2000/svg" x="0px" y="0px" width="100" height="100" viewBox="0 0 48 48">
  <defs>
    <linearGradient id="gradient1" gradientTransform="rotate(90)">
      <stop offset="0%" stop-color="#14F195"/>
      <stop offset="40.1%" stop-color="#80ECFF"/>
      <stop offset="82.29%" stop-color="#64A8F2"/>
      <stop offset="100%" stop-color="#64A8F2"/>
    </linearGradient>
  </defs>
  
  <path fill="url(#gradient1)" d="M43,15H5c-1.1,0-2-0.9-2-2v-2c0-1.1,0.9-2,2-2h38c1.1,0,2,0.9,2,2v2C45,14.1,44.1,15,43,15z"></path>
  <path fill="url(#gradient1)" d="M43,27H5c-1.1,0-2-0.9-2-2v-2c0-1.1,0.9-2,2-2h38c1.1,0,2,0.9,2,2v2C45,26.1,44.1,27,43,27z"></path>
  <path fill="url(#gradient1)" d="M43,39H5c-1.1,0-2-0.9-2-2v-2c0-1.1,0.9-2,2-2h38c1.1,0,2,0.9,2,2v2C45,38.1,44.1,39,43,39z"></path>
</svg>
