<svg width="20" height="21" viewBox="0 0 20 21" fill="none" xmlns="http://www.w3.org/2000/svg">
<g clip-path="url(#clip0_1_282)">
<path d="M13.2279 6.66016C12.6613 3.17188 11.325 0.722656 9.76995 0.722656C8.21487 0.722656 6.87858 3.17188 6.31203 6.66016H13.2279ZM6.01899 10.4102C6.01899 11.2773 6.06588 12.1094 6.14793 12.9102H13.3881C13.4701 12.1094 13.517 11.2773 13.517 10.4102C13.517 9.54297 13.4701 8.71094 13.3881 7.91016H6.14793C6.06588 8.71094 6.01899 9.54297 6.01899 10.4102ZM18.7059 6.66016C17.5884 4.00781 15.3261 1.95703 12.5324 1.12891C13.4858 2.44922 14.1422 4.4375 14.486 6.66016H18.7059ZM7.00362 1.12891C4.21383 1.95703 1.94763 4.00781 0.834057 6.66016H5.05389C5.39383 4.4375 6.05025 2.44922 7.00362 1.12891ZM19.1239 7.91016H14.6423C14.7244 8.73047 14.7712 9.57031 14.7712 10.4102C14.7712 11.25 14.7244 12.0898 14.6423 12.9102H19.12C19.3349 12.1094 19.456 11.2773 19.456 10.4102C19.456 9.54297 19.3349 8.71094 19.1239 7.91016ZM4.76867 10.4102C4.76867 9.57031 4.81555 8.73047 4.8976 7.91016H0.41598C0.204988 8.71094 0.0799561 9.54297 0.0799561 10.4102C0.0799561 11.2773 0.204988 12.1094 0.41598 12.9102H4.8937C4.81555 12.0898 4.76867 11.25 4.76867 10.4102ZM6.31203 14.1602C6.87858 17.6484 8.21487 20.0977 9.76995 20.0977C11.325 20.0977 12.6613 17.6484 13.2279 14.1602H6.31203ZM12.5363 19.6914C15.3261 18.8633 17.5923 16.8125 18.7098 14.1602H14.4899C14.1461 16.3828 13.4897 18.3711 12.5363 19.6914ZM0.834057 14.1602C1.95153 16.8125 4.21383 18.8633 7.00752 19.6914C6.05415 18.3711 5.39773 16.3828 5.05389 14.1602H0.834057Z" fill="#848895"/>
</g>
<defs>
<clipPath id="clip0_1_282">
<rect width="19.38" height="20" fill="white" transform="translate(0.0799561 0.410156)"/>
</clipPath>
</defs>
</svg>
