<svg width="1440" height="426" viewBox="0 0 1440 426" fill="none" xmlns="http://www.w3.org/2000/svg">
<path d="M0.5 12.7002C0.5 6.34893 5.64873 1.2002 12 1.2002H1428C1434.35 1.2002 1439.5 6.34892 1439.5 12.7002V424.7H0.5V12.7002Z" fill="#000508"/>
<path d="M0.5 12.7002C0.5 6.34893 5.64873 1.2002 12 1.2002H1428C1434.35 1.2002 1439.5 6.34892 1439.5 12.7002V424.7H0.5V12.7002Z" fill="url(#paint0_radial_1_238)"/>
<path d="M0.5 12.7002C0.5 6.34893 5.64873 1.2002 12 1.2002H1428C1434.35 1.2002 1439.5 6.34892 1439.5 12.7002V424.7H0.5V12.7002Z" fill="url(#paint1_radial_1_238)"/>
<path d="M0.5 12.7002C0.5 6.34893 5.64873 1.2002 12 1.2002H1428C1434.35 1.2002 1439.5 6.34892 1439.5 12.7002V424.7H0.5V12.7002Z" stroke="#141414"/>
<defs>
<radialGradient id="paint0_radial_1_238" cx="0" cy="0" r="1" gradientUnits="userSpaceOnUse" gradientTransform="translate(1440 425.2) scale(2036.47 600.334)">
<stop stop-color="#3A233F"/>
<stop offset="0.245865" stop-opacity="0"/>
</radialGradient>
<radialGradient id="paint1_radial_1_238" cx="0" cy="0" r="1" gradientUnits="userSpaceOnUse" gradientTransform="translate(0 425.2) scale(720 212.25)">
<stop stop-color="#271D3B"/>
<stop offset="0.625869" stop-opacity="0"/>
</radialGradient>
</defs>
</svg>
